<svg width="367" height="89" viewBox="0 0 367 89" fill="none" xmlns="http://www.w3.org/2000/svg">
<path d="M149.581 33.4225H138.218C138.066 32.2559 137.756 31.2028 137.286 30.2634C136.816 29.324 136.195 28.521 135.422 27.8543C134.65 27.1877 133.733 26.6801 132.672 26.3316C131.627 25.968 130.468 25.7862 129.195 25.7862C126.937 25.7862 124.99 26.3392 123.354 27.4452C121.733 28.5513 120.483 30.1498 119.604 32.2407C118.74 34.3316 118.309 36.8619 118.309 39.8316C118.309 42.9225 118.748 45.5134 119.627 47.6043C120.521 49.6801 121.771 51.2483 123.377 52.3089C124.998 53.3543 126.915 53.8771 129.127 53.8771C130.369 53.8771 131.498 53.718 132.513 53.3998C133.544 53.0816 134.445 52.6195 135.218 52.0134C136.006 51.3922 136.65 50.6422 137.15 49.7634C137.665 48.8695 138.021 47.8619 138.218 46.7407L149.581 46.8089C149.384 48.8695 148.786 50.8998 147.786 52.8998C146.801 54.8998 145.445 56.7256 143.718 58.3771C141.99 60.0134 139.884 61.3165 137.4 62.2862C134.93 63.2559 132.097 63.7407 128.9 63.7407C124.687 63.7407 120.915 62.8165 117.581 60.968C114.263 59.1043 111.642 56.3922 109.718 52.8316C107.794 49.271 106.831 44.9377 106.831 39.8316C106.831 34.7104 107.809 30.3695 109.763 26.8089C111.718 23.2483 114.362 20.5437 117.695 18.6952C121.028 16.8468 124.763 15.9225 128.9 15.9225C131.718 15.9225 134.324 16.3165 136.718 17.1043C139.112 17.8771 141.218 19.0134 143.036 20.5134C144.854 21.9983 146.331 23.824 147.468 25.9907C148.604 28.1574 149.309 30.6346 149.581 33.4225ZM156.019 63.1043V28.1952H167.133V63.1043H156.019ZM161.587 24.1271C160.026 24.1271 158.686 23.6119 157.564 22.5816C156.443 21.5362 155.883 20.2786 155.883 18.8089C155.883 17.3543 156.443 16.1119 157.564 15.0816C158.686 14.0362 160.026 13.5134 161.587 13.5134C163.163 13.5134 164.504 14.0362 165.61 15.0816C166.731 16.1119 167.292 17.3543 167.292 18.8089C167.292 20.2786 166.731 21.5362 165.61 22.5816C164.504 23.6119 163.163 24.1271 161.587 24.1271ZM185.32 43.1952V63.1043H174.206V28.1952H184.775V34.6043H185.161C185.934 32.468 187.252 30.7937 189.115 29.5816C190.979 28.3543 193.199 27.7407 195.775 27.7407C198.229 27.7407 200.358 28.2937 202.161 29.3998C203.979 30.4907 205.388 32.021 206.388 33.9907C207.403 35.9452 207.903 38.2331 207.888 40.8543V63.1043H196.775V43.0362C196.79 41.0968 196.297 39.5816 195.297 38.4907C194.312 37.3998 192.941 36.8543 191.184 36.8543C190.017 36.8543 188.987 37.1119 188.093 37.6271C187.214 38.1271 186.532 38.8468 186.047 39.7862C185.578 40.7256 185.335 41.8619 185.32 43.1952ZM231.087 63.7634C227.436 63.7634 224.284 63.0437 221.633 61.6043C218.996 60.1498 216.966 58.0816 215.542 55.3998C214.133 52.7028 213.428 49.4983 213.428 45.7862C213.428 42.1801 214.14 39.0286 215.564 36.3316C216.989 33.6195 218.996 31.5134 221.587 30.0134C224.178 28.4983 227.231 27.7407 230.746 27.7407C233.231 27.7407 235.504 28.1271 237.564 28.8998C239.625 29.6725 241.405 30.8165 242.905 32.3316C244.405 33.8468 245.572 35.718 246.405 37.9452C247.239 40.1574 247.655 42.6952 247.655 45.5589V48.3316H217.314V41.8771H237.314C237.299 40.6952 237.019 39.6422 236.473 38.718C235.928 37.7937 235.178 37.074 234.223 36.5589C233.284 36.0286 232.201 35.7634 230.973 35.7634C229.731 35.7634 228.617 36.0437 227.633 36.6043C226.648 37.1498 225.867 37.8998 225.292 38.8543C224.716 39.7937 224.413 40.8619 224.383 42.0589V48.6271C224.383 50.0513 224.663 51.3013 225.223 52.3771C225.784 53.4377 226.58 54.2634 227.61 54.8543C228.64 55.4452 229.867 55.7407 231.292 55.7407C232.276 55.7407 233.17 55.6043 233.973 55.3316C234.776 55.0589 235.466 54.6574 236.042 54.1271C236.617 53.5968 237.049 52.9452 237.337 52.1725L247.542 52.468C247.117 54.7559 246.186 56.7483 244.746 58.4452C243.322 60.1271 241.451 61.4377 239.133 62.3771C236.814 63.3013 234.133 63.7634 231.087 63.7634Z" fill="white"/>
<path d="M253.331 63.1043V16.5589H264.581V53.968H283.945V63.1043H253.331ZM289.769 63.1043V28.1952H300.883V63.1043H289.769ZM295.337 24.1271C293.776 24.1271 292.436 23.6119 291.314 22.5816C290.193 21.5362 289.633 20.2786 289.633 18.8089C289.633 17.3543 290.193 16.1119 291.314 15.0816C292.436 14.0362 293.776 13.5134 295.337 13.5134C296.913 13.5134 298.254 14.0362 299.36 15.0816C300.481 16.1119 301.042 17.3543 301.042 18.8089C301.042 20.2786 300.481 21.5362 299.36 22.5816C298.254 23.6119 296.913 24.1271 295.337 24.1271ZM338.434 38.8543L328.229 39.1271C328.123 38.3998 327.835 37.7559 327.365 37.1952C326.896 36.6195 326.282 36.1725 325.525 35.8543C324.782 35.521 323.919 35.3543 322.934 35.3543C321.646 35.3543 320.547 35.6119 319.638 36.1271C318.744 36.6422 318.305 37.3392 318.32 38.218C318.305 38.8998 318.578 39.4907 319.138 39.9907C319.714 40.4907 320.737 40.8922 322.206 41.1952L328.934 42.468C332.419 43.1346 335.009 44.2407 336.706 45.7862C338.419 47.3316 339.282 49.3771 339.297 51.9225C339.282 54.3165 338.57 56.3998 337.161 58.1725C335.767 59.9452 333.858 61.324 331.434 62.3089C329.009 63.2786 326.237 63.7634 323.115 63.7634C318.131 63.7634 314.199 62.7407 311.32 60.6952C308.456 58.6346 306.82 55.8771 306.411 52.4225L317.388 52.1498C317.631 53.4225 318.259 54.3922 319.275 55.0589C320.29 55.7256 321.585 56.0589 323.161 56.0589C324.585 56.0589 325.744 55.7937 326.638 55.2634C327.532 54.7331 327.987 54.0286 328.002 53.1498C327.987 52.3619 327.638 51.7331 326.956 51.2634C326.275 50.7786 325.206 50.3998 323.752 50.1271L317.661 48.968C314.161 48.3316 311.555 47.1574 309.843 45.4452C308.131 43.718 307.282 41.521 307.297 38.8543C307.282 36.521 307.903 34.5286 309.161 32.8771C310.419 31.2104 312.206 29.9377 314.525 29.0589C316.843 28.1801 319.578 27.7407 322.729 27.7407C327.456 27.7407 331.184 28.7331 333.911 30.718C336.638 32.6877 338.146 35.3998 338.434 38.8543ZM364.473 28.1952V36.3771H342.451V28.1952H364.473ZM347.064 19.8316H358.178V52.1271C358.178 52.8089 358.284 53.3619 358.496 53.7862C358.723 54.1952 359.049 54.4907 359.473 54.6725C359.898 54.8392 360.405 54.9225 360.996 54.9225C361.42 54.9225 361.867 54.8846 362.337 54.8089C362.822 54.718 363.186 54.6422 363.428 54.5816L365.11 62.6043C364.58 62.7559 363.83 62.9452 362.86 63.1725C361.905 63.3998 360.761 63.5437 359.428 63.6043C356.822 63.7256 354.587 63.4225 352.723 62.6952C350.875 61.9528 349.458 60.8013 348.473 59.2407C347.504 57.6801 347.034 55.718 347.064 53.3543V19.8316Z" fill="#B4FF39"/>
<path d="M11.7475 0.973673C9.28688 -0.375702 6.31031 -0.316172 3.88938 1.11258C1.46844 2.54133 0 5.14086 0 7.93883V80.9638C0 83.7618 1.48828 86.3613 3.88938 87.7901C6.29047 89.2188 9.28688 89.2784 11.7475 87.929L78.4225 51.4165C80.9625 50.0274 82.55 47.3485 82.55 44.4513C82.55 41.5541 80.9625 38.8752 78.4225 37.4862L11.7475 0.973673Z" fill="url(#paint0_linear_18_44)"/>
<defs>
<linearGradient id="paint0_linear_18_44" x1="41.275" y1="0" x2="41.275" y2="88.9027" gradientUnits="userSpaceOnUse">
<stop offset="1" stop-color="#B4FF39"/>
</linearGradient>
</defs>
</svg>
